
<svg width="16" height="15" viewBox="0 0 16 15" fill="none" xmlns="http://www.w3.org/2000/svg">
<path d="M11.7436 2.12156L11.7531 1.62101C11.6874 1.61985 11.6222 1.63164 11.561 1.65571C11.4999 1.67979 11.4441 1.71568 11.3968 1.76133L11.7436 2.12156ZM13.1576 2.14851L13.6581 2.15805C13.6594 2.09229 13.6478 2.02692 13.6238 1.96568C13.5999 1.90443 13.564 1.84852 13.5184 1.80113C13.4728 1.75375 13.4183 1.71583 13.358 1.68955C13.2977 1.66327 13.2329 1.64913 13.1671 1.64796L13.1576 2.14851ZM13.1306 3.56246L13.4774 3.92269C13.5248 3.87721 13.5628 3.82282 13.5892 3.76265C13.6155 3.70248 13.6298 3.63769 13.6311 3.572L13.1306 3.56246ZM6.3402 7.32283L7.7272 8.76374L8.44766 8.07023L7.06065 6.62933L6.3402 7.32283ZM7.71373 9.47072L5.55237 11.5512L6.24587 12.2717L8.40723 10.1912L7.71373 9.47072ZM4.84539 11.5377L3.45838 10.0968L2.73793 10.7903L4.12494 12.2313L4.84539 11.5377ZM3.47186 9.38986L5.63322 7.30935L4.93972 6.5889L2.77836 8.66941L3.47186 9.38986ZM3.45838 10.0968C3.36642 10.0013 3.31617 9.87315 3.3187 9.74056C3.32123 9.60798 3.37632 9.48183 3.47186 9.38986L2.77836 8.66941C2.49174 8.9453 2.32646 9.32375 2.31888 9.72151C2.3113 10.1193 2.46204 10.5037 2.73793 10.7903L3.45838 10.0968ZM5.55237 11.5512C5.45683 11.6432 5.32867 11.6934 5.19609 11.6909C5.06351 11.6884 4.93736 11.6333 4.84539 11.5377L4.12494 12.2313C4.40083 12.5179 4.77928 12.6831 5.17703 12.6907C5.57479 12.6983 5.95926 12.5476 6.24587 12.2717L5.55237 11.5512ZM7.7272 8.76374C7.81917 8.85927 7.86941 8.98743 7.86689 9.12002C7.86436 9.2526 7.80927 9.37875 7.71373 9.47072L8.40723 10.1912C8.69385 9.91528 8.85912 9.53683 8.86671 9.13907C8.87429 8.74132 8.72355 8.35685 8.44766 8.07023L7.7272 8.76374ZM7.06065 6.62933C6.78476 6.34271 6.40631 6.17743 6.00856 6.16985C5.6108 6.16227 5.22633 6.31301 4.93972 6.5889L5.63322 7.30935C5.72876 7.21739 5.85692 7.16714 5.9895 7.16967C6.12208 7.1722 6.24823 7.22729 6.3402 7.32283L7.06065 6.62933ZM7.04718 7.3363L10.6494 3.86879L9.95594 3.14833L6.35367 6.61585L7.04718 7.3363ZM9.94247 3.85531L11.3295 5.29622L12.0499 4.60272L10.6629 3.16181L9.94247 3.85531ZM11.3429 4.58924L7.74068 8.05676L8.43418 8.77721L12.0365 5.3097L11.3429 4.58924ZM3.80514 10.4571L2.68583 11.4225L2.31888 12.5L4.49864 11.1775L3.80514 10.4571ZM10.6494 3.86879L12.0904 2.48178L11.3968 1.76133L9.95594 3.14833L10.6494 3.86879ZM11.7341 2.6221L13.148 2.64905L13.1671 1.64796L11.7531 1.62101L11.7341 2.6221ZM12.657 2.13896L12.6301 3.55292L13.6311 3.572L13.6581 2.15805L12.657 2.13896ZM12.7839 3.20224L11.3429 4.58924L12.0365 5.3097L13.4774 3.92269L12.7839 3.20224Z" fill="#F25F5C"/>
</svg>